<svg width="34" height="34" viewBox="0 0 34 34" fill="none" xmlns="http://www.w3.org/2000/svg">
<path d="M28.6885 4.25H1.06348V25.5H28.6885V4.25ZM26.5635 23.375H3.18848V6.375H26.5635V23.375Z" fill="white"/>
<path d="M30.8135 9.5625V27.625H6.37598V29.75H32.9385V9.5625H30.8135Z" fill="white"/>
<path d="M14.876 20.0855C17.5124 20.0855 19.6572 17.7523 19.6572 14.8835C19.6572 12.0148 17.5124 9.68152 14.876 9.68152C12.2396 9.68152 10.0947 12.0148 10.0947 14.8835C10.0947 17.7523 12.2396 20.0855 14.876 20.0855ZM14.876 11.8079C16.3408 11.8079 17.5322 13.1878 17.5322 14.8849C17.5322 16.5821 16.3408 17.9619 14.876 17.9619C13.4111 17.9619 12.2197 16.5821 12.2197 14.8849C12.2197 13.1878 13.4111 11.8079 14.876 11.8079Z" fill="white"/>
<path d="M5.31348 9.03125H7.43848V20.7188H5.31348V9.03125Z" fill="white"/>
<path d="M22.3135 9.03125H24.4385V20.7188H22.3135V9.03125Z" fill="white"/>
</svg>
