<svg width="36" height="36" viewBox="0 0 36 36" fill="none" xmlns="http://www.w3.org/2000/svg">
<path d="M23.001 26C23.001 26.2652 22.8956 26.5196 22.7081 26.7071C22.5205 26.8946 22.2662 27 22.001 27H8.00098C7.78098 27 7.57098 27.2 7.39098 27.33L4.00098 30V14C4.00098 13.7348 4.10633 13.4804 4.29387 13.2929C4.48141 13.1054 4.73576 13 5.00098 13H8.86098V11H5.00098C4.20533 11 3.44227 11.3161 2.87966 11.8787C2.31705 12.4413 2.00098 13.2044 2.00098 14V32C2.00246 32.1857 2.05564 32.3674 2.15455 32.5245C2.25346 32.6817 2.39419 32.8083 2.56098 32.89C2.72166 32.9631 2.89881 32.9923 3.07445 32.9747C3.25009 32.9572 3.41795 32.8934 3.56098 32.79L8.71098 29H22.151C22.53 29.0112 22.9073 28.9445 23.2594 28.8039C23.6116 28.6634 23.9312 28.4521 24.1983 28.183C24.4655 27.914 24.6746 27.5929 24.8127 27.2398C24.9507 26.8867 25.0148 26.5089 25.001 26.13V25H23.001V26Z" fill="white"/>
<path d="M31.001 4H14.001C13.2053 4 12.4423 4.31607 11.8797 4.87868C11.317 5.44129 11.001 6.20435 11.001 7V19C11.001 19.7956 11.317 20.5587 11.8797 21.1213C12.4423 21.6839 13.2053 22 14.001 22H27.551L32.331 25.71C32.4731 25.8151 32.6405 25.8806 32.8161 25.8999C32.9918 25.9192 33.1694 25.8917 33.331 25.82C33.5012 25.739 33.6449 25.6115 33.7458 25.4522C33.8467 25.293 33.9004 25.1085 33.901 24.92V7C33.9014 6.22138 33.5991 5.47309 33.0579 4.91327C32.5168 4.35345 31.7792 4.02595 31.001 4ZM32.001 22.94L28.501 20.21C28.3264 20.0745 28.1119 20.0007 27.891 20H14.001C13.7358 20 13.4814 19.8946 13.2939 19.7071C13.1063 19.5196 13.001 19.2652 13.001 19V7C13.001 6.73478 13.1063 6.48043 13.2939 6.29289C13.4814 6.10536 13.7358 6 14.001 6H31.001C31.2683 6.02426 31.5175 6.14542 31.7017 6.34065C31.8859 6.53589 31.9923 6.79173 32.001 7.06V22.94Z" fill="white"/>
</svg>
