<svg width="37" height="37" viewBox="0 0 37 37" fill="none" xmlns="http://www.w3.org/2000/svg">
<path d="M6.93848 18.5H13.876V20.8125H6.93848V18.5Z" fill="white"/>
<path d="M6.93848 13.875H18.501V16.1875H6.93848V13.875Z" fill="white"/>
<path d="M6.93848 9.25H18.501V11.5625H6.93848V9.25Z" fill="white"/>
<path d="M16.1885 30.0625H4.62598V6.9375H32.376V18.5H34.6885V6.9375C34.6885 6.32419 34.4448 5.73599 34.0112 5.30232C33.5775 4.86864 32.9893 4.625 32.376 4.625H4.62598C4.01266 4.625 3.42447 4.86864 2.99079 5.30232C2.55711 5.73599 2.31348 6.32419 2.31348 6.9375V30.0625C2.31348 30.6758 2.55711 31.264 2.99079 31.6977C3.42447 32.1314 4.01266 32.375 4.62598 32.375H16.1885V30.0625Z" fill="white"/>
<path d="M25.4385 29.5884L22.4438 26.5938L20.8135 28.2241L25.4385 32.8491L34.6885 23.5991L33.0582 21.9688L25.4385 29.5884Z" fill="white"/>
</svg>
