<svg width="20" height="20" viewBox="0 0 20 20" fill="none" xmlns="http://www.w3.org/2000/svg">
<path d="M1.91162 5.62481L9.54382 9.44043L17.176 5.62481C17.1478 5.1385 16.9346 4.68139 16.5803 4.34711C16.226 4.01282 15.7572 3.82666 15.2701 3.82675H3.81752C3.33039 3.82666 2.86166 4.01282 2.50733 4.34711C2.15299 4.68139 1.93987 5.1385 1.91162 5.62481Z" fill="#1185DA"/>
<path d="M17.1788 7.7569L9.54375 11.5744L1.90869 7.7569V13.3706C1.90869 13.8768 2.10979 14.3623 2.46776 14.7203C2.82572 15.0782 3.31122 15.2793 3.81746 15.2793H15.27C15.7763 15.2793 16.2618 15.0782 16.6197 14.7203C16.9777 14.3623 17.1788 13.8768 17.1788 13.3706V7.7569Z" fill="#1185DA"/>
</svg>
