<svg width="23" height="24" viewBox="0 0 23 24" fill="none" xmlns="http://www.w3.org/2000/svg">
<path d="M1.32522 4.04432L4.30682 1.0413C4.67077 0.674388 5.1579 0.468353 5.67303 0.468353C6.18816 0.468353 6.67529 0.671566 7.03925 1.0413L10.2504 4.27294C10.6144 4.63985 10.8187 5.13377 10.8187 5.65309C10.8187 6.17523 10.6172 6.66351 10.2504 7.03324L7.74195 9.56493C8.3134 10.9072 9.13447 12.1268 10.1608 13.1578C11.1883 14.1993 12.3893 15.0206 13.7219 15.602L16.2304 13.0703C16.5944 12.7034 17.0815 12.4974 17.5966 12.4974C17.8507 12.4964 18.1024 12.5466 18.337 12.645C18.5716 12.7434 18.7844 12.888 18.9628 13.0703L22.1768 16.302C22.5407 16.6689 22.7451 17.1628 22.7451 17.6821C22.7451 18.2043 22.5435 18.6925 22.1768 19.0623L19.198 22.0653C18.5765 22.6919 17.7198 23.0503 16.8407 23.0503C16.6587 23.0503 16.4824 23.0362 16.3032 23.0052C12.5965 22.3899 8.91779 20.4001 5.94739 17.4084C2.9798 14.411 1.00886 10.7023 0.392946 6.96268C0.21657 5.90146 0.569324 4.80919 1.32522 4.04432ZM2.37788 6.62681C2.9238 9.95442 4.69876 13.2736 7.3724 15.9689C10.046 18.6643 13.3356 20.4537 16.6363 21.0041C17.0507 21.0746 17.4762 20.9335 17.7786 20.6315L20.7042 17.6821L17.6022 14.5521L14.2483 17.939L14.2231 17.9644L13.6184 17.7386C11.7848 17.059 10.1198 15.9855 8.73864 14.5927C7.35751 13.1998 6.29333 11.5209 5.61984 9.67218L5.39587 9.06254L8.77781 5.65591L5.67583 2.52588L2.75023 5.47528C2.44787 5.7801 2.30789 6.2091 2.37788 6.62681Z" fill="#1185DA"/>
</svg>
