<svg width="21" height="21" viewBox="0 0 21 21" fill="none" xmlns="http://www.w3.org/2000/svg">
<path d="M18.1617 4.7209L15.9776 2.53887C15.8236 2.38412 15.6404 2.26134 15.4388 2.17758C15.2371 2.09382 15.0209 2.05073 14.8025 2.05078C14.3575 2.05078 13.9392 2.2251 13.6254 2.53887L11.2752 4.88906C11.1205 5.04313 10.9977 5.22625 10.9139 5.42791C10.8302 5.62957 10.7871 5.8458 10.7871 6.06416C10.7871 6.50918 10.9614 6.92754 11.2752 7.24131L12.9938 8.95986C12.5915 9.84654 12.0322 10.6532 11.3429 11.3408C10.6553 12.0318 9.84873 12.5931 8.96192 12.9979L7.24336 11.2793C7.08929 11.1246 6.90617 11.0018 6.70451 10.918C6.50285 10.8343 6.28663 10.7912 6.06826 10.7912C5.62324 10.7912 5.20488 10.9655 4.89111 11.2793L2.53887 13.6274C2.38393 13.7818 2.26105 13.9653 2.17728 14.1673C2.09352 14.3693 2.05053 14.5859 2.05078 14.8046C2.05078 15.2496 2.2251 15.668 2.53887 15.9817L4.71885 18.1617C5.21924 18.6642 5.91035 18.9492 6.61992 18.9492C6.76963 18.9492 6.91319 18.9369 7.05469 18.9123C9.81914 18.457 12.561 16.9866 14.7738 14.7759C16.9846 12.5672 18.4529 9.82734 18.9144 7.05469C19.0538 6.20772 18.7729 5.33613 18.1617 4.7209Z" fill="white"/>
</svg>
