<svg width="31" height="31" viewBox="0 0 31 31" fill="none" xmlns="http://www.w3.org/2000/svg">
<path d="M8.90281 22.3696L11.6177 21.5865L27.964 5.0444C28.0929 4.91228 28.1647 4.73473 28.1638 4.55012C28.163 4.36551 28.0895 4.18865 27.9594 4.05774L26.9804 3.06799C26.9171 3.00299 26.8416 2.95124 26.7581 2.91576C26.6746 2.88028 26.5849 2.86179 26.4942 2.86136C26.4035 2.86093 26.3136 2.87857 26.2298 2.91325C26.146 2.94793 26.0699 2.99896 26.0061 3.06336L9.70293 19.5623L8.90127 22.3681L8.90281 22.3696ZM28.9183 1.10699L29.8972 2.09828C31.2477 3.46574 31.2601 5.67186 29.9219 7.02544L13.0776 24.0732L7.27481 25.7444C6.92053 25.8435 6.54138 25.7981 6.22056 25.618C5.89974 25.438 5.66345 25.138 5.56356 24.7839C5.48922 24.5293 5.48815 24.259 5.56047 24.0038L7.2486 18.0838L24.0481 1.08078C24.3676 0.759122 24.7479 0.504291 25.1668 0.331147C25.5858 0.158003 26.0351 0.0700134 26.4884 0.0723094C26.9417 0.0746055 27.39 0.167141 27.8072 0.34452C28.2244 0.521899 28.6021 0.78057 28.9183 1.10545V1.10699ZM11.1598 2.88453C11.9245 2.88453 12.5442 3.51199 12.5442 4.2859C12.5454 4.46885 12.5106 4.65024 12.4417 4.81971C12.3727 4.98918 12.2711 5.14339 12.1425 5.27354C12.0139 5.4037 11.8609 5.50723 11.6923 5.57822C11.5237 5.64921 11.3428 5.68627 11.1598 5.68728H5.62214C4.09281 5.68728 2.85331 6.94219 2.85331 8.48849V25.3019C2.85331 26.8497 4.09281 28.1047 5.62214 28.1047H22.2351C23.7645 28.1047 25.0055 26.8497 25.0055 25.3019V19.6979C25.0055 18.924 25.6253 18.2966 26.3899 18.2966C27.1546 18.2966 27.7744 18.924 27.7744 19.6995V25.3019C27.7744 28.3976 25.2938 30.9074 22.2351 30.9074H5.62214C2.56347 30.9074 0.0844727 28.3976 0.0844727 25.3019V8.48849C0.0844727 5.39436 2.56347 2.88453 5.62214 2.88453H11.1598Z" fill="white"/>
</svg>
