<svg width="22" height="22" viewBox="0 0 22 22" fill="none" xmlns="http://www.w3.org/2000/svg">
<path d="M10.7959 0.353806C7.5794 0.353806 4.96256 2.97064 4.96256 6.18714C4.96256 9.40364 7.5794 12.0205 10.7959 12.0205C14.0124 12.0205 16.6292 9.40364 16.6292 6.18714C16.6292 2.97064 14.0124 0.353806 10.7959 0.353806ZM10.7959 9.68714C8.86623 9.68714 7.2959 8.11681 7.2959 6.18714C7.2959 4.25747 8.86623 2.68714 10.7959 2.68714C12.7256 2.68714 14.2959 4.25747 14.2959 6.18714C14.2959 8.11681 12.7256 9.68714 10.7959 9.68714ZM21.2959 22.5205V21.3538C21.2959 16.8516 17.6314 13.1871 13.1292 13.1871H8.46256C3.95923 13.1871 0.295898 16.8516 0.295898 21.3538V22.5205H2.62923V21.3538C2.62923 18.1373 5.24607 15.5205 8.46256 15.5205H13.1292C16.3457 15.5205 18.9626 18.1373 18.9626 21.3538V22.5205H21.2959Z" fill="#1185DA"/>
</svg>
