<svg width="36" height="36" viewBox="0 0 36 36" fill="none" xmlns="http://www.w3.org/2000/svg">
<path d="M33.4901 26.28C33.4198 26.0306 33.2554 25.8182 33.0315 25.6876C32.8077 25.557 32.5419 25.5185 32.2901 25.58L29.8001 26.25C31.1627 24.2415 31.9889 21.9179 32.2001 19.5C32.4044 17.2379 32.0736 14.9595 31.2346 12.8488C30.3955 10.7382 29.0717 8.8545 27.3701 7.35002C27.1734 7.18733 26.922 7.10602 26.6672 7.12276C26.4125 7.13949 26.1739 7.253 26.0001 7.44002C25.8253 7.63904 25.7366 7.89928 25.7535 8.16363C25.7704 8.42798 25.8914 8.67484 26.0901 8.85002C27.5564 10.1443 28.6971 11.7657 29.4198 13.583C30.1426 15.4003 30.427 17.3623 30.2501 19.31C30.0788 21.3615 29.3908 23.3363 28.2501 25.05L28.0001 22.54C28.019 22.3923 28.0046 22.2422 27.958 22.1008C27.9115 21.9593 27.8339 21.8301 27.731 21.7224C27.6281 21.6148 27.5025 21.5315 27.3633 21.4786C27.2241 21.4257 27.0748 21.4046 26.9264 21.4168C26.778 21.4289 26.6342 21.4741 26.5054 21.549C26.3767 21.6238 26.2663 21.7265 26.1823 21.8495C26.0984 21.9725 26.0429 22.1127 26.02 22.2598C25.9972 22.4069 26.0074 22.5574 26.0501 22.7L26.5501 29.14L32.8001 27.48C33.0477 27.4076 33.2577 27.2423 33.3863 27.0187C33.5149 26.7951 33.5521 26.5304 33.4901 26.28Z" fill="white"/>
<path d="M4.31002 17.08C4.44293 17.1655 4.59326 17.2201 4.75002 17.24C5.011 17.2742 5.27496 17.2042 5.48463 17.0451C5.6943 16.8859 5.83278 16.6506 5.87002 16.39C6.28322 13.3391 7.83368 10.557 10.2109 8.60069C12.5882 6.64438 15.6167 5.65833 18.69 5.83999L16.45 7.36999C16.2915 7.48939 16.1721 7.65325 16.1071 7.8407C16.042 8.02816 16.0341 8.23074 16.0845 8.42267C16.1349 8.61459 16.2413 8.78719 16.3901 8.91849C16.5388 9.04979 16.7233 9.13386 16.92 9.15999C17.1453 9.18059 17.3709 9.12418 17.56 8.99999L22.89 5.33999L18.33 0.759994C18.2489 0.635655 18.1411 0.530946 18.0144 0.453468C17.8878 0.375991 17.7454 0.327688 17.5978 0.312068C17.4501 0.296448 17.3009 0.313902 17.1608 0.363163C17.0207 0.412425 16.8934 0.492257 16.788 0.596864C16.6827 0.701471 16.6019 0.828228 16.5516 0.967932C16.5014 1.10764 16.4828 1.25678 16.4974 1.40454C16.512 1.5523 16.5592 1.69496 16.6358 1.82217C16.7123 1.94939 16.8163 2.05795 16.94 2.13999L18.64 3.83999C15.0909 3.67029 11.607 4.83736 8.8763 7.1108C6.14557 9.38425 4.3664 12.5988 3.89002 16.12C3.86438 16.3032 3.89007 16.4899 3.96421 16.6594C4.03836 16.8289 4.15807 16.9745 4.31002 17.08Z" fill="white"/>
<path d="M21.7302 29.93C20.1686 30.4288 18.5214 30.6024 16.8902 30.44C14.9035 30.2453 12.9941 29.57 11.3268 28.4723C9.65949 27.3747 8.28437 25.8878 7.32016 24.14L9.81016 25.07C10.0397 25.1098 10.2759 25.0682 10.4781 24.9525C10.6802 24.8367 10.8356 24.654 10.9174 24.4358C10.9992 24.2177 11.0023 23.9779 10.9261 23.7577C10.8499 23.5376 10.6993 23.3509 10.5002 23.23L5.91016 21.53L4.44016 21L3.33016 27.35C3.29167 27.6037 3.35223 27.8626 3.49928 28.0729C3.64633 28.2833 3.86863 28.429 4.12016 28.48H4.29016C4.52552 28.4843 4.75484 28.4054 4.93776 28.2572C5.12068 28.1091 5.24547 27.9011 5.29016 27.67L5.71016 25.27C6.84118 27.2513 8.42983 28.9332 10.3434 30.1753C12.257 31.4174 14.44 32.1836 16.7102 32.41C18.6081 32.5981 20.5245 32.3939 22.3402 31.81C22.5713 31.7143 22.7582 31.5353 22.864 31.3085C22.9697 31.0817 22.9865 30.8236 22.9112 30.5849C22.8358 30.3463 22.6737 30.1446 22.4569 30.0197C22.2402 29.8947 21.9844 29.8556 21.7402 29.91L21.7302 29.93Z" fill="white"/>
<path d="M22 13H14C13.7348 13 13.4804 13.1054 13.2929 13.2929C13.1054 13.4804 13 13.7348 13 14V22C13 22.2652 13.1054 22.5196 13.2929 22.7071C13.4804 22.8946 13.7348 23 14 23H22C22.2652 23 22.5196 22.8946 22.7071 22.7071C22.8946 22.5196 23 22.2652 23 22V14C23 13.7348 22.8946 13.4804 22.7071 13.2929C22.5196 13.1054 22.2652 13 22 13ZM21 21H15V15H21V21Z" fill="white"/>
</svg>
