<svg width="37" height="37" viewBox="0 0 37 37" fill="none" xmlns="http://www.w3.org/2000/svg">
<path d="M6.9375 18.5H13.875V20.8125H6.9375V18.5Z" fill="white"/>
<path d="M6.9375 13.875H18.5V16.1875H6.9375V13.875Z" fill="white"/>
<path d="M6.9375 9.25H18.5V11.5625H6.9375V9.25Z" fill="white"/>
<path d="M16.1875 30.0625H4.625V6.9375H32.375V18.5H34.6875V6.9375C34.6875 6.32419 34.4439 5.73599 34.0102 5.30232C33.5765 4.86864 32.9883 4.625 32.375 4.625H4.625C4.01169 4.625 3.42349 4.86864 2.98982 5.30232C2.55614 5.73599 2.3125 6.32419 2.3125 6.9375V30.0625C2.3125 30.6758 2.55614 31.264 2.98982 31.6977C3.42349 32.1314 4.01169 32.375 4.625 32.375H16.1875V30.0625Z" fill="white"/>
<path d="M25.4375 29.5884L22.4428 26.5938L20.8125 28.2241L25.4375 32.8491L34.6875 23.5991L33.0572 21.9688L25.4375 29.5884Z" fill="white"/>
</svg>
